#!OML:ASF E:\Style4\Style4.ASF
:FULLY-SPECIFIED
:DEGREES
1785
root -1.60219 17.6063 -0.980623 11.8947 0.79656 -20.7914
lowerback 9.75759 2.96671 -15.1213
upperback -0.428227 1.57746 -8.94377
thorax -6.18628 1.07 -1.40706
lowerneck 2.65999 -3.2492 -7.12817
upperneck 0.4545 -4.52775 5.22459
head -0.0160644 -2.30053 2.93676
rclavicle 4.77083e-015 3.18055e-015
rhumerus -76.8478 46.125 -123.734
rradius 73.5794
rwrist 1.28365
rhand -3.99918 29.3991
rfingers 7.12502
rthumb 21.7547 0.60166
lclavicle 4.77083e-015 3.18055e-015
lhumerus -19.7254 31.8803 16.0855
lradius 93.7617
lwrist -12.3212
lhand -10.0379 36.1318
lfingers 7.12502
lthumb 15.9471 65.4953
rfemur -9.24757 5.92045 45.6478
rtibia 3.25665
rfoot -5.55161 -10.1421
rtoes -0.432592
lfemur -29.8264 1.21895 11.7753
ltibia 43.9712
lfoot -23.3096 9.10843
ltoes -24.3385
1786
root -1.59657 17.6041 -0.982181 11.9169 0.819522 -20.8678
lowerback 9.70835 2.94124 -15.061
upperback -0.39911 1.57123 -8.88514
thorax -6.12439 1.06293 -1.36921
lowerneck 2.50224 -3.25873 -7.14495
upperneck 0.51752 -4.53178 5.19728
head 0.0314478 -2.30101 2.92619
rclavicle -2.70347e-014 6.67916e-014
rhumerus -76.8596 46.2528 -123.732
rradius 73.6015
rwrist 1.29408
rhand -4.33282 29.3679
rfingers 7.12502
rthumb 21.4343 0.533656
lclavicle -2.70347e-014 6.67916e-014
lhumerus -19.8012 31.9303 16.0855
lradius 93.7832
lwrist -12.4018
lhand -9.51808 36.0357
lfingers 7.12502
lthumb 16.4477 65.3585
rfemur -9.05898 5.92588 45.7667
rtibia 2.84486
rfoot -5.3794 -10.1301
rtoes -0.32104
lfemur -29.8934 1.28172 11.847
ltibia 44.0303
lfoot -23.3175 9.01635
ltoes -24.1956
1787
root -1.59024 17.6013 -0.983309 11.9074 0.822122 -20.9636
lowerback 9.66406 2.94305 -14.9496
upperback -0.381806 1.60223 -8.84237
thorax -6.07967 1.07302 -1.38271
lowerneck 2.51329 -3.28145 -7.14667
upperneck 0.491121 -4.56262 5.23963
head 0.0243046 -2.31668 2.94138
rclavicle -7.95139e-015 -4.45278e-014
rhumerus -76.874 46.2301 -123.701
rradius 73.6341
rwrist 1.37213
rhand -4.45262 29.4835
rfingers 7.12502
rthumb 21.3193 0.636141
lclavicle -7.95139e-015 -4.45278e-014
lhumerus -19.7977 31.9172 16.0469
lradius 93.7135
lwrist -12.3403
lhand -9.27625 35.8811
lfingers 7.12502
lthumb 16.6805 65.1844
rfemur -8.8097 5.9382 45.9035
rtibia 2.40625
rfoot -5.1914 -10.1216
rtoes -0.0740497
lfemur -29.9194 1.33773 11.9301
ltibia 44.0926
lfoot -23.3031 9.05348
ltoes -24.4265
1788
root -1.58414 17.6003 -0.988042 11.903 0.854246 -21.0195
lowerback 9.67814 2.95322 -14.8209
upperback -0.403058 1.62433 -8.84138
thorax -6.10845 1.08192 -1.45505
lowerneck 2.70725 -3.30511 -7.03668
upperneck 0.371454 -4.60128 5.20947
head -0.0482982 -2.33716 2.91656
rclavicle 4.77083e-015 1.01778e-013
rhumerus -76.8947 46.1035 -123.708
rradius 73.6541
rwrist 1.40565
rhand -4.42852 29.5598
rfingers 7.12502
rthumb 21.3424 0.715127
lclavicle 4.77083e-015 1.01778e-013
lhumerus -19.7193 31.8514 16.0253
lradius 93.5684
lwrist -12.1939
lhand -9.37465 35.6978
lfingers 7.12502
lthumb 16.5858 65.009
rfemur -8.55213 5.91975 46.0164
rtibia 1.91572
rfoot -4.95458 -10.0974
rtoes -0.177132
lfemur -29.9806 1.33658 11.9776
ltibia 44.1291
lfoot -23.2995 9.0823
ltoes -24.5472
1789
root -1.57881 17.6013 -0.989848 11.8676 0.953912 -21.0224
lowerback 9.71629 2.93423 -14.724
upperback -0.377582 1.60785 -8.83236
thorax -6.09735 1.07039 -1.49407
lowerneck 2.7199 -3.28948 -6.94932
upperneck 0.393335 -4.57895 5.13255
head -0.0490089 -2.32569 2.87422
rclavicle 3.97569e-014 -4.77083e-014
rhumerus -76.9139 46.0912 -123.707
rradius 73.7117
rwrist 1.36905
rhand -4.48878 29.5747
rfingers 7.12502
rthumb 21.2845 0.723494
lclavicle 3.97569e-014 -4.77083e-014
lhumerus -19.6512 31.9282 16.0606
lradius 93.3881
lwrist -12.2087
lhand -9.33456 35.3988
lfingers 7.12502
lthumb 16.6244 64.7068
rfemur -8.04885 5.81716 46.1408
rtibia 1.0368
rfoot -4.62114 -10.0148
rtoes -0.334736
lfemur -30.0333 1.28541 11.9747
ltibia 44.1474
lfoot -23.2604 9.02207
ltoes -24.4378
1790
root -1.57421 17.6055 -0.98971 11.8222 1.01267 -20.9317
lowerback 9.74933 2.92992 -14.7276
upperback -0.34421 1.60061 -8.8275
thorax -6.07904 1.06548 -1.48552
lowerneck 2.7229 -3.29405 -6.98081
upperneck 0.39432 -4.58621 5.16022
head -0.0473103 -2.32958 2.88952
rclavicle -1.43125e-014 2.8625e-014
rhumerus -76.9354 46.1196 -123.681
rradius 73.7838
rwrist 1.29289
rhand -4.57341 29.5284
rfingers 7.12502
rthumb 21.2032 0.668021
lclavicle -1.43125e-014 2.8625e-014
lhumerus -19.5777 31.9727 16.1432
lradius 93.3268
lwrist -12.2575
lhand -9.26894 35.4066
lfingers 7.12502
lthumb 16.6875 64.7093
rfemur -7.44899 5.72674 46.1817
rtibia 8.74653e-015
rfoot -4.17642 -9.94187
rtoes -0.458653
lfemur -30.0208 1.22853 11.8565
ltibia 44.1354
lfoot -23.2647 8.94739
ltoes -24.1337
1791
root -1.56836 17.6057 -0.99191 11.7772 1.001 -20.9934
lowerback 9.79185 2.9541 -14.6094
upperback -0.353077 1.63794 -8.78463
thorax -6.11308 1.08239 -1.51023
lowerneck 2.78377 -3.32199 -7.01616
upperneck 0.349833 -4.62777 5.23661
head -0.0665493 -2.35137 2.92399
rclavicle -2.54444e-014 6.99722e-014
rhumerus -76.9409 46.0851 -123.658
rradius 73.8022
rwrist 1.18396
rhand -4.5137 29.4838
rfingers 7.12502
rthumb 21.2606 0.629828
lclavicle -2.54444e-014 6.99722e-014
lhumerus -19.6039 31.917 16.1154
lradius 93.4161
lwrist -12.3433
lhand -9.09673 35.5587
lfingers 7.12502
lthumb 16.8533 64.8474
rfemur -7.40674 5.72843 46.2307
rtibia 2.14687e-014
rfoot -4.14755 -9.96394
rtoes -0.770418
lfemur -29.9733 1.27362 11.8971
ltibia 44.124
lfoot -23.2518 8.92581
ltoes -24.2278
1792
root -1.5628 17.6061 -0.993447 11.7085 0.984007 -20.9748
lowerback 9.84273 2.98193 -14.541
upperback -0.331639 1.67445 -8.78552
thorax -6.11916 1.09744 -1.55495
lowerneck 2.75618 -3.35845 -6.96525
upperneck 0.341104 -4.67345 5.29531
head -0.0612332 -2.37438 2.93373
rclavicle -1.43125e-014 8.90555e-014
rhumerus -76.8569 46.0505 -123.574
rradius 73.834
rwrist 1.01432
rhand -4.23891 29.4883
rfingers 7.12502
rthumb 21.5245 0.664287
lclavicle -1.43125e-014 8.90555e-014
lhumerus -19.5456 31.9359 16.1106
lradius 93.391
lwrist -12.4199
lhand -9.13404 35.5737
lfingers 7.12502
lthumb 16.8174 64.8654
rfemur -7.33106 5.70808 46.1995
rtibia -1.19271e-015
rfoot -4.13152 -9.97241
rtoes -1.01591
lfemur -29.901 1.29984 11.8479
ltibia 44.0899
lfoot -23.1824 8.91669
ltoes -24.5196
